<?xml version="1.0" encoding="utf-8"?>
<svg viewBox="0 0 24 24" fill="none" xmlns="http://www.w3.org/2000/svg">
  <path d="M22 16L17 11V7C17 6.27 16.73 5.59 16.29 5.05C15.85 4.5 15.23 4.14 14.53 4.04C13.82 3.93 13.1 4.08 12.5 4.46C11.89 4.85 11.45 5.43 11.23 6.12C11.08 6.6 11.08 7.11 11.23 7.59L10.38 6.88C10.152 6.68686 9.87666 6.55408 9.58215 6.49446C9.28764 6.43484 8.98345 6.44995 8.69548 6.53851C8.40751 6.62707 8.14474 6.78662 7.92825 7.00311C7.71176 7.2196 7.55221 7.48237 7.46365 7.77034C7.37509 8.05831 7.35998 8.3625 7.4196 8.65701C7.47922 8.95152 7.612 9.22686 7.80514 9.45467L8.51514 10.3047L8.03514 10.3247C7.55514 10.3247 7.08514 10.4547 6.68514 10.6947C6.28514 10.9347 5.96514 11.2747 5.77514 11.6847C5.58514 12.0947 5.52514 12.5447 5.60514 12.9847C5.68514 13.4247 5.90514 13.8247 6.22514 14.1447L9.51514 17.4347L4.51514 21.4347C4.38181 21.5447 4.29115 21.6977 4.25927 21.8674C4.22739 22.037 4.25612 22.2125 4.34014 22.3646C4.42416 22.5167 4.55875 22.6363 4.72223 22.7024C4.88571 22.7685 5.06719 22.7772 5.23514 22.7247C5.34514 22.6947 5.44514 22.6347 5.52514 22.5547L9.52514 17.5547L12.8151 20.8447C13.1351 21.1647 13.5351 21.3847 13.9751 21.4647C14.4151 21.5447 14.8651 21.4847 15.2751 21.2947C15.6851 21.1047 16.0251 20.7847 16.2651 20.3847C16.5051 19.9847 16.6351 19.5147 16.6351 19.0347V18.5547L17.4851 19.2647C17.713 19.4578 17.9883 19.5906 18.2828 19.6502C18.5773 19.7098 18.8815 19.6947 19.1695 19.6061C19.4574 19.5176 19.7202 19.358 19.9367 19.1415C20.1532 18.925 20.3128 18.6622 20.4013 18.3743C20.4899 18.0863 20.505 17.7821 20.4454 17.4876C20.3858 17.1931 20.253 16.9178 20.0599 16.6899L19.3499 15.8399L19.9999 15.9999L22.0099 15.9999L22.0099 15.9999Z" fill="#4CAF50"/>
</svg> 